<?xml version="1.0" encoding="utf-8"?>
<!-- Generator: Adobe Illustrator 27.0.0, SVG Export Plug-In . SVG Version: 6.00 Build 0)  -->
<svg version="1.1" id="레이어_1" xmlns="http://www.w3.org/2000/svg" xmlns:xlink="http://www.w3.org/1999/xlink" x="0px"
	 y="0px" viewBox="0 0 180 180" style="enable-background:new 0 0 180 180;" xml:space="preserve">
<style type="text/css">
	.st0{fill:none;}
	.st1{fill:#00DEA4;}
	.st2{fill:#007FFF;}
	.st3{fill:#CCCCCC;}
	.st4{fill:#999999;}
</style>
<g>
	<g>
		<path class="st0" d="M125.8,175c2.9,0,5.7-0.2,8.5-0.7C131.6,174.8,128.7,175,125.8,175C125.8,175,125.8,175,125.8,175z"/>
		<polygon class="st0" points="90,20.5 90,20.5 89.2,19.7 89,19.5 89.2,19.7 		"/>
		<path class="st0" d="M125.3,43.1c-2.2-0.9-4.7-1.5-7.3-1.5c-0.5,0-1,0-1.5,0.1c0.5,0,1-0.1,1.5-0.1
			C120.6,41.6,123,42.2,125.3,43.1z"/>
		<path class="st0" d="M112.1,42.6c0.4-0.1,0.8-0.3,1.3-0.4C112.9,42.3,112.5,42.4,112.1,42.6l-10.9-10.9l0,0L112.1,42.6z"/>
		<path class="st0" d="M112.7,53.3c0.2-0.2,0.5-0.3,0.7-0.5C113.2,53,112.9,53.1,112.7,53.3z"/>
		<path class="st0" d="M113.4,52.8c0.2-0.1,0.5-0.3,0.7-0.4C113.9,52.5,113.7,52.7,113.4,52.8z"/>
		<path class="st0" d="M111.8,54.1c0.2-0.2,0.4-0.4,0.6-0.6C112.2,53.7,112,53.9,111.8,54.1z"/>
		<path class="st0" d="M7.5,38.7C5.8,43.6,5,48.8,5,54.1c0,6.6,1.3,12.9,3.7,18.8C6.3,67.1,5,60.7,5,54.1C5,48.8,5.8,43.6,7.5,38.7z
			"/>
		<polygon class="st0" points="78,30.9 77.9,30.8 78,30.9 78.8,31.7 78.8,31.7 		"/>
		<polygon class="st0" points="90,42.9 100.6,53.5 90,42.9 		"/>
		<path class="st0" d="M54.2,20.8c0.2,0,0.4,0,0.6,0C54.5,20.9,54.3,20.8,54.2,20.8z"/>
		<path class="st0" d="M118,79.1c-2.5,0-4.9-0.5-7.1-1.4C113.1,78.6,115.5,79.1,118,79.1c5.5,0,10.4-2.4,13.9-6.1
			C128.4,76.7,123.5,79.1,118,79.1z"/>
		<path class="st0" d="M103.8,72.6c0.4,0.5,0.8,0.9,1.2,1.3C104.6,73.5,104.2,73.1,103.8,72.6z"/>
		<path class="st0" d="M131.5,47.4c-0.2-0.2-0.4-0.4-0.6-0.6C131.1,47,131.3,47.2,131.5,47.4z"/>
		<path class="st0" d="M21.5,47.8c1.2-6.3,4.3-12.3,9.1-17.2c6.3-6.3,14.6-9.6,23-9.7c-8.3,0.1-16.6,3.4-23,9.7
			C25.7,35.5,22.7,41.5,21.5,47.8z"/>
		<path class="st0" d="M112.2,67c1.5,1.3,3.6,2.2,5.8,2.2c0.3,0,0.6,0,0.9,0c-0.3,0-0.6,0-0.9,0C115.8,69.2,113.8,68.4,112.2,67z"/>
		<polygon class="st0" points="19.4,88.9 19.7,89.2 19.7,89.2 		"/>
		<path class="st0" d="M114.6,52.2c0.3-0.1,0.5-0.2,0.8-0.3C115.1,52,114.8,52.1,114.6,52.2z"/>
		<path class="st0" d="M140.2,172.9c-0.8,0.2-1.5,0.4-2.3,0.6C138.6,173.4,139.4,173.1,140.2,172.9z"/>
		<path class="st0" d="M136.7,173.8c-0.8,0.2-1.6,0.3-2.4,0.5C135.1,174.2,135.9,174,136.7,173.8z"/>
		<path class="st0" d="M123.8,53.7c-1.5-1.3-3.6-2.2-5.8-2.2c-0.9,0-1.8,0.1-2.6,0.4c0.8-0.3,1.7-0.4,2.6-0.4
			C120.2,51.5,122.2,52.4,123.8,53.7z"/>
		<path class="st0" d="M126.1,56.9c0.1,0.3,0.2,0.5,0.3,0.8C126.3,57.5,126.2,57.2,126.1,56.9z"/>
		<path class="st0" d="M125.7,56.2c0.1,0.2,0.3,0.5,0.4,0.8C126,56.7,125.9,56.4,125.7,56.2z"/>
		<path class="st0" d="M125.4,65.2c-0.1,0.1-0.1,0.2-0.2,0.3C125.3,65.3,125.3,65.2,125.4,65.2z"/>
		<path class="st0" d="M110.5,65.1c-0.1-0.1-0.1-0.2-0.2-0.3C110.4,64.9,110.5,65,110.5,65.1z"/>
		<path class="st0" d="M124.2,66.6c-0.1,0.1-0.2,0.2-0.3,0.3C124,66.8,124.1,66.7,124.2,66.6z"/>
		<path class="st0" d="M122.5,68c-0.9,0.5-1.9,0.9-3,1.1C120.5,68.9,121.5,68.5,122.5,68z"/>
		<path class="st0" d="M54.2,5c-9,0-17.7,2.4-25.2,6.9C36.5,7.4,45.1,5,54.2,5C54.2,5,54.2,5,54.2,5z"/>
		<path class="st0" d="M125.8,175C125.9,175,125.8,175,125.8,175c-0.5,0-0.9,0-1.4,0C124.9,175,125.4,175,125.8,175z"/>
		<path class="st0" d="M54.2,5C54.1,5,54.2,5,54.2,5c0.5,0,0.9,0,1.4,0C55.1,5,54.6,5,54.2,5z"/>
		<path class="st0" d="M22.8,16.2c1.9-1.6,4-3,6.1-4.3C26.8,13.2,24.8,14.6,22.8,16.2z"/>
		<path class="st0" d="M125.7,43.3c0.4,0.2,0.7,0.3,1.1,0.5C126.4,43.6,126.1,43.5,125.7,43.3z"/>
		<path class="st0" d="M129,45.2c0.1,0.1,0.3,0.2,0.4,0.3C129.2,45.4,129.1,45.3,129,45.2z"/>
		<path class="st0" d="M12.2,28.5c0.5-0.8,1-1.6,1.5-2.3C13.2,27,12.7,27.7,12.2,28.5z"/>
		<path class="st0" d="M114.4,42c0.4-0.1,0.8-0.1,1.2-0.2C115.2,41.8,114.8,41.9,114.4,42z"/>
		<path class="st0" d="M127.1,44c0.5,0.3,1,0.6,1.4,0.9C128.1,44.6,127.6,44.3,127.1,44z"/>
		<path class="st0" d="M10.2,32.1c0.5-0.9,1-1.8,1.5-2.7C11.2,30.2,10.7,31.1,10.2,32.1z"/>
		<polygon class="st0" points="23.4,85.4 30.9,78 30.7,77.8 30.9,78 		"/>
		<path class="st0" d="M8.7,35.3c0.5-1.1,1-2.2,1.5-3.3C9.7,33.1,9.2,34.2,8.7,35.3z"/>
		<path class="st0" d="M7.5,38.7c0.2-0.8,0.5-1.5,0.8-2.3C8,37.2,7.7,37.9,7.5,38.7z"/>
		<path class="st0" d="M100.6,67.2c-0.1-0.3-0.2-0.6-0.3-0.9C100.3,66.7,100.4,66.9,100.6,67.2z"/>
		<path class="st0" d="M106.1,74.8c-0.3-0.3-0.7-0.6-1-0.9C105.4,74.2,105.7,74.5,106.1,74.8z"/>
		<path class="st0" d="M99.3,58.6c0.1-1.5,0.5-2.9,0.9-4.3C99.8,55.6,99.5,57.1,99.3,58.6z"/>
		<path class="st0" d="M101.3,68.9c-0.1-0.3-0.3-0.5-0.4-0.8C101,68.3,101.2,68.6,101.3,68.9z"/>
		<path class="st0" d="M21.5,47.8c-0.1,0.5-0.2,1.1-0.3,1.6C21.3,48.8,21.4,48.3,21.5,47.8z"/>
		<path class="st0" d="M21,50.9c0,0.3,0,0.6-0.1,0.8C21,51.5,21,51.2,21,50.9z"/>
		<path class="st0" d="M21.2,49.3c-0.1,0.5-0.1,1.1-0.2,1.6C21.1,50.4,21.1,49.9,21.2,49.3z"/>
		<path class="st0" d="M110.5,77.5c-0.5-0.2-1-0.5-1.5-0.7C109.5,77.1,110,77.3,110.5,77.5z"/>
		<path class="st0" d="M133.5,70.8c-0.5,0.7-1.1,1.5-1.7,2.1C132.4,72.3,133,71.6,133.5,70.8z"/>
		<path class="st0" d="M107,75.5c-0.2-0.1-0.4-0.3-0.6-0.4C106.6,75.2,106.8,75.4,107,75.5z"/>
		<path class="st0" d="M131.9,47.8c0.1,0.1,0.3,0.3,0.4,0.5C132.1,48.1,132,48,131.9,47.8z"/>
		<path class="st0" d="M134.4,69.3c-0.2,0.4-0.4,0.8-0.7,1.2C134,70.1,134.2,69.7,134.4,69.3z"/>
		<path class="st0" d="M129.9,45.9c0.2,0.2,0.5,0.4,0.7,0.6C130.3,46.3,130.1,46.1,129.9,45.9z"/>
		<path class="st0" d="M109.1,76.8c-0.6-0.3-1.1-0.7-1.7-1C107.9,76.2,108.5,76.5,109.1,76.8z"/>
		<path class="st0" d="M57.2,127.5c1.3,0.8,2.9,1.3,4.6,1.3c0.3,0,0.6,0,0.9,0c-0.3,0-0.6,0-0.9,0C60.1,128.7,58.5,128.3,57.2,127.5
			z"/>
		<polygon class="st0" points="90,137.1 86.9,134 90,137.1 		"/>
		<path class="st0" d="M125.8,159.2c-0.2,0-0.3,0-0.5,0C125.5,159.1,125.7,159.2,125.8,159.2z"/>
		<polygon class="st0" points="102,149.1 102.2,149.3 102,149.1 101.2,148.3 101.2,148.3 		"/>
		<path class="st0" d="M76,107.8c-0.4-0.5-0.9-1-1.4-1.5C75.1,106.8,75.6,107.3,76,107.8z"/>
		<path class="st0" d="M47,131.5c0.9,1.2,2,2.2,3.2,3.2C49,133.7,47.9,132.7,47,131.5z"/>
		<path class="st0" d="M43,119c0,0.3,0,0.6,0,1c0,2.6,0.5,5,1.5,7.3c-0.9-2.2-1.5-4.7-1.5-7.3C43,119.6,43,119.3,43,119z"/>
		<path class="st0" d="M72.6,104.6c-3.1-2.2-6.8-3.5-10.8-3.5c-0.3,0-0.6,0-0.9,0c0.3,0,0.6,0,0.9,0
			C65.8,101.2,69.5,102.5,72.6,104.6z"/>
		<path class="st0" d="M174.9,123.4c0,0.8,0.1,1.6,0.1,2.5C175,125.1,175,124.2,174.9,123.4z"/>
		<path class="st0" d="M159.1,125.1c0,0.5,0,1.1,0,1.6C159.1,126.1,159.1,125.6,159.1,125.1z"/>
		<path class="st0" d="M173.8,115c0.2,0.8,0.3,1.6,0.5,2.4C174.1,116.6,174,115.8,173.8,115z"/>
		<path class="st0" d="M172.5,110.4c0.5,1.5,0.9,3.1,1.3,4.6C173.5,113.5,173,111.9,172.5,110.4z"/>
		<path class="st0" d="M174.3,117.4c0.3,1.6,0.5,3.2,0.6,4.8C174.7,120.6,174.5,119,174.3,117.4z"/>
		<path class="st0" d="M54.5,137.2c2.2,0.9,4.7,1.5,7.3,1.5c0.8,0,1.6-0.1,2.4-0.2c-0.8,0.1-1.6,0.2-2.4,0.2
			C59.2,138.6,56.7,138.1,54.5,137.2z"/>
		<path class="st0" d="M149.2,102.2l0.2,0.2c2.8,2.8,5.1,6.1,6.7,9.5c-1.6-3.4-3.8-6.7-6.7-9.5L149.2,102.2z"/>
		<path class="st0" d="M57.2,112.4c0.8-0.5,1.8-0.9,2.8-1.1C59,111.5,58,111.9,57.2,112.4z"/>
		<path class="st0" d="M57.2,112.4c-2.5,1.5-4.2,4.3-4.2,7.5c0,2.3,0.9,4.4,2.3,5.9c-1.4-1.6-2.3-3.6-2.3-5.9
			C52.9,116.7,54.6,113.9,57.2,112.4z"/>
		<path class="st0" d="M170.8,106c0.6,1.5,1.2,2.9,1.7,4.5C172,108.9,171.5,107.4,170.8,106z"/>
		<path class="st0" d="M67.7,113.4c-1.6-1.4-3.6-2.3-5.9-2.3c-0.6,0-1.2,0.1-1.8,0.2c0.6-0.1,1.2-0.2,1.8-0.2
			C64,111.1,66.1,112,67.7,113.4z"/>
		
			<rect x="73.4" y="135.3" transform="matrix(0.9701 -0.2425 0.2425 0.9701 -32.4757 22.0715)" class="st0" width="0" height="15.2"/>
		<path class="st0" d="M70.6,119.9c0,0.8-0.1,1.5-0.3,2.2C70.5,121.4,70.6,120.7,70.6,119.9c0-2.3-0.9-4.4-2.3-5.9
			C69.7,115.6,70.6,117.6,70.6,119.9z"/>
		<path class="st0" d="M57.2,127.5c-0.5-0.3-0.9-0.6-1.4-1C56.2,126.8,56.7,127.2,57.2,127.5z"/>
		<path class="st0" d="M157.9,163.1c0.9-0.8,1.8-1.6,2.7-2.5c0.9-0.9,1.7-1.8,2.5-2.7c-0.8,0.9-1.6,1.8-2.5,2.7
			C159.7,161.5,158.8,162.3,157.9,163.1z"/>
		<polygon class="st0" points="90,159.5 90.8,160.3 90,159.5 		"/>
		<path class="st0" d="M70.3,122.1c-0.2,0.8-0.5,1.5-0.9,2.2C69.8,123.7,70.1,122.9,70.3,122.1z"/>
		<path class="st0" d="M64.3,128.4c-0.2,0.1-0.4,0.1-0.7,0.2C63.8,128.5,64,128.4,64.3,128.4z"/>
		<path class="st0" d="M69.2,124.6c-0.1,0.2-0.2,0.4-0.4,0.6C68.9,125,69.1,124.8,69.2,124.6z"/>
		<path class="st0" d="M154.9,142.1c0.9-1.7,1.7-3.4,2.3-5.2C156.6,138.7,155.9,140.4,154.9,142.1z"/>
		<path class="st0" d="M59.9,101.3c0.3,0,0.6-0.1,0.9-0.1C60.4,101.2,60.2,101.3,59.9,101.3z"/>
		<path class="st0" d="M58.1,101.6c0.6-0.1,1.1-0.2,1.7-0.3C59.2,101.4,58.6,101.4,58.1,101.6z"/>
		<path class="st0" d="M72.6,104.6c0.4,0.3,0.7,0.5,1.1,0.8C73.3,105.2,72.9,104.9,72.6,104.6z"/>
		<path class="st0" d="M73.6,105.5c0.2,0.2,0.5,0.4,0.7,0.6C74.1,105.9,73.9,105.7,73.6,105.5z"/>
		<path class="st0" d="M126.4,159.1c8-0.1,15.9-3.1,22.1-8.9C142.3,156,134.4,159,126.4,159.1z"/>
		<path class="st0" d="M43.1,118c0.1-0.6,0.2-1.2,0.3-1.9C43.3,116.8,43.2,117.4,43.1,118z"/>
		<path class="st0" d="M52.8,136.4c-0.7-0.4-1.3-0.8-1.9-1.2C51.5,135.6,52.2,136,52.8,136.4z"/>
		<path class="st0" d="M50.9,135.2c-0.2-0.2-0.5-0.4-0.7-0.5C50.4,134.8,50.7,135,50.9,135.2z"/>
		<path class="st0" d="M54.5,137.2c-0.6-0.2-1.1-0.5-1.6-0.8C53.3,136.7,53.9,136.9,54.5,137.2z"/>
		<path class="st0" d="M169.8,103.8c0.4,0.7,0.7,1.4,1,2.2C170.5,105.2,170.1,104.5,169.8,103.8z"/>
		<path class="st0" d="M43,119c0-0.3,0-0.6,0.1-0.9C43.1,118.3,43,118.6,43,119z"/>
		<path class="st0" d="M45.3,128.8c-0.3-0.5-0.6-1.1-0.8-1.6C44.7,127.8,45,128.3,45.3,128.8z"/>
		<path class="st0" d="M47,131.5c-0.6-0.8-1.2-1.7-1.7-2.6C45.8,129.8,46.4,130.6,47,131.5z"/>
		<path class="st0" d="M157.8,116.4c-0.2-0.5-0.3-1-0.5-1.5C157.4,115.4,157.6,115.9,157.8,116.4z"/>
		<path class="st0" d="M158.4,118.7c-0.2-0.8-0.4-1.6-0.6-2.3C158,117.2,158.2,117.9,158.4,118.7z"/>
		<path class="st0" d="M157.3,114.9c-0.4-1-0.8-2-1.2-3C156.5,112.8,156.9,113.8,157.3,114.9z"/>
		<polygon class="st0" points="160.3,90.8 149.1,102 160.3,90.8 		"/>
		<path class="st0" d="M168.1,100.6c0.4,0.7,0.8,1.4,1.2,2.1C168.9,102,168.5,101.3,168.1,100.6z"/>
		<path class="st0" d="M157.8,135.4c0.3-1,0.6-2.1,0.8-3.1C158.3,133.3,158.1,134.3,157.8,135.4z"/>
		<path class="st0" d="M158.8,121.1c-0.1-0.5-0.2-1.1-0.3-1.6C158.6,120,158.7,120.6,158.8,121.1z"/>
		<path class="st0" d="M158.8,130.7c0.2-1.3,0.3-2.7,0.3-4C159.1,128,159,129.3,158.8,130.7z"/>
		<path class="st0" d="M159,123.4c-0.1-0.8-0.1-1.6-0.3-2.3C158.9,121.9,159,122.6,159,123.4z"/>
		<path class="st0" d="M158.5,132.2c0.1-0.5,0.2-1.1,0.3-1.6C158.7,131.2,158.6,131.7,158.5,132.2z"/>
		<rect x="84.4" y="29.4" class="st1" width="0" height="15.9"/>
		<path class="st1" d="M148.6,31.4c13,13,13,34.1,0,47.1l-0.3,0.3L137.1,90l-46.3,46.3l11.2,11.2l46.3-46.3L159.5,90l0.3-0.3
			c9.3-9.3,14.4-21.6,14.4-34.8c0-13.1-5.1-25.5-14.4-34.8c-9.3-9.3-21.6-14.4-34.8-14.4c-12.9,0-25,4.9-34.2,13.8l11.2,11.2
			C115.1,18.4,135.8,18.6,148.6,31.4z"/>
		<path class="st1" d="M31.4,148.6c-13-13-13-34.1,0-47.1l0.3-0.3L42.9,90l46.2-46.2L78,32.5L32.6,77.9l0,0l-0.8,0.8L20.5,90
			l-0.6,0.6C10.8,99.8,5.8,112.1,5.8,125c0,13.1,5.1,25.5,14.4,34.8c9.3,9.3,21.6,14.4,34.8,14.4c12.9,0,25-4.9,34.2-13.8
			l-11.2-11.2C64.9,161.6,44.2,161.4,31.4,148.6z"/>
		<rect x="95.6" y="18.2" transform="matrix(0.9701 -0.2425 0.2425 0.9701 -3.4742 23.9723)" class="st1" width="0" height="15.9"/>
		
			<rect x="95.6" y="134.8" transform="matrix(0.9701 -0.2425 0.2425 0.9701 -31.7588 27.4489)" class="st1" width="0" height="15.9"/>
		<rect x="84.4" y="146" class="st1" width="0" height="15.9"/>
		<path class="st2" d="M174.9,123.4c0-0.4,0-0.8-0.1-1.2c-0.1-1.6-0.3-3.2-0.6-4.8c-0.1-0.8-0.3-1.6-0.5-2.4
			c-0.4-1.6-0.8-3.1-1.3-4.6c-0.5-1.5-1.1-3-1.7-4.5c-0.3-0.7-0.7-1.4-1-2.2c-0.2-0.4-0.4-0.7-0.6-1.1c-0.4-0.7-0.8-1.4-1.2-2.1
			c-1-1.7-2.2-3.4-3.4-5c-1.2-1.6-2.6-3.1-4-4.6l-0.3-0.3L149.1,102l0.1,0.1l0.2,0.2c2.8,2.8,5.1,6.1,6.7,9.5c0.5,1,0.9,2,1.2,3
			c0.2,0.5,0.3,1,0.5,1.5c0.2,0.8,0.4,1.6,0.6,2.3c0.1,0.3,0.1,0.5,0.2,0.8c0.1,0.5,0.2,1.1,0.3,1.6c0.1,0.8,0.2,1.5,0.3,2.3
			c0,0.6,0.1,1.1,0.1,1.7c0,0.5,0,1.1,0,1.6c0,1.3-0.1,2.7-0.3,4c-0.1,0.5-0.2,1.1-0.3,1.6c-0.2,1-0.5,2.1-0.8,3.1
			c-0.2,0.5-0.3,1-0.5,1.5c-0.6,1.8-1.4,3.5-2.3,5.2s-2,3.3-3.3,4.8c-0.7,0.9-1.5,1.7-2.3,2.5c-0.3,0.3-0.6,0.6-0.9,0.8
			c-6.2,5.8-14.1,8.8-22.1,8.9c-0.2,0-0.4,0-0.6,0c0,0,0,0,0,0c-0.2,0-0.3,0-0.5,0c-8.4-0.1-16.7-3.4-23-9.7l-0.1-0.1l-0.1-0.1
			l-0.8-0.8L90,137.1l-3.1-3.1l-7.6-7.6c0.8-2,1.2-4.2,1.2-6.5c0-4.6-1.7-8.8-4.4-12.1c-0.4-0.5-0.9-1-1.4-1.5
			c-0.1-0.1-0.2-0.2-0.3-0.3c-0.2-0.2-0.4-0.4-0.7-0.6c-0.3-0.3-0.7-0.6-1.1-0.8c-3.1-2.2-6.8-3.5-10.8-3.5c-0.3,0-0.6,0-0.9,0
			c0,0,0,0,0,0c-0.3,0-0.6,0-0.9,0.1c0,0-0.1,0-0.1,0c-0.6,0.1-1.2,0.1-1.7,0.3c-4.6,0.9-8.6,3.5-11.3,7.2c-0.1,0.1-0.2,0.2-0.3,0.4
			c-0.3,0.4-0.5,0.7-0.7,1.1c-0.1,0.1-0.2,0.3-0.2,0.4c-0.2,0.3-0.3,0.5-0.4,0.8c-0.1,0.3-0.3,0.5-0.4,0.8s-0.2,0.6-0.4,0.8
			c-0.4,1-0.7,2-0.9,3.1c-0.1,0.6-0.2,1.2-0.3,1.9c0,0.3-0.1,0.6-0.1,0.9s0,0.6,0,1c0,2.6,0.5,5,1.5,7.3c0.2,0.6,0.5,1.1,0.8,1.6
			c0.5,0.9,1.1,1.8,1.7,2.6c0.9,1.2,2,2.2,3.2,3.2c0.2,0.2,0.5,0.4,0.7,0.5c0.6,0.4,1.3,0.8,1.9,1.2c0.5,0.3,1.1,0.6,1.6,0.8
			c2.2,0.9,4.7,1.5,7.3,1.5c0.8,0,1.6-0.1,2.4-0.2c1.3-0.2,2.6-0.5,3.8-0.9v0l0,0l10.8,10.8L90,159.5l0.8,0.8l0.3,0.3
			c8.9,8.9,20.7,14,33.3,14.4c0.5,0,0.9,0,1.4,0c2.9,0,5.7-0.2,8.5-0.7c0.8-0.1,1.6-0.3,2.4-0.5c0.4-0.1,0.8-0.2,1.2-0.3
			c0.8-0.2,1.5-0.4,2.3-0.6s1.5-0.5,2.3-0.7c0.8-0.3,1.5-0.6,2.2-0.9c1.1-0.5,2.2-1,3.3-1.5c0.7-0.4,1.4-0.7,2.1-1.1
			c1-0.6,2.1-1.2,3.1-1.9c0.7-0.4,1.3-0.9,2-1.4c1-0.7,1.9-1.5,2.8-2.3c0.9-0.8,1.8-1.6,2.7-2.5c0.9-0.9,1.7-1.8,2.5-2.7
			c0.3-0.3,0.5-0.6,0.8-0.9c5.7-6.9,9.3-15.1,10.6-23.8c0.1-0.8,0.2-1.6,0.3-2.4c0.1-0.8,0.1-1.6,0.2-2.4c0-0.8,0.1-1.6,0.1-2.5
			C175,125.1,175,124.2,174.9,123.4z M70.3,122.1c-0.2,0.8-0.5,1.5-0.9,2.2c-0.1,0.1-0.1,0.2-0.2,0.3c-0.1,0.2-0.2,0.4-0.4,0.6
			c-0.1,0.1-0.2,0.2-0.3,0.3c-0.3,0.3-0.6,0.6-0.9,0.9c-0.3,0.3-0.6,0.5-1,0.8c-0.7,0.5-1.5,0.9-2.4,1.1c-0.2,0.1-0.4,0.1-0.7,0.2
			c-0.3,0.1-0.7,0.1-1,0.2c-0.3,0-0.6,0-0.9,0c-1.7,0-3.2-0.5-4.6-1.3c-0.5-0.3-0.9-0.6-1.4-1c-0.2-0.2-0.4-0.4-0.6-0.6
			c-1.4-1.6-2.3-3.6-2.3-5.9c0-3.2,1.7-6,4.2-7.5c0.8-0.5,1.8-0.9,2.8-1.1c0.6-0.1,1.2-0.2,1.8-0.2c2.3,0,4.4,0.9,5.9,2.3
			c0.2,0.2,0.4,0.4,0.6,0.6c1.4,1.6,2.3,3.6,2.3,5.9C70.6,120.7,70.5,121.4,70.3,122.1z"/>
		<path class="st2" d="M23.4,85.4l7.5-7.5l-0.1-0.1l-0.1-0.1c-7.1-7.1-10.3-16.6-9.7-25.9c0-0.3,0-0.6,0.1-0.8
			c0.1-0.5,0.1-1.1,0.2-1.6c0.1-0.5,0.2-1.1,0.3-1.6c1.2-6.3,4.3-12.3,9.1-17.2c6.3-6.3,14.6-9.6,23-9.7c0.2,0,0.4,0,0.6,0
			c0,0,0,0,0,0c0.2,0,0.4,0,0.6,0c8.3,0.1,16.6,3.4,23,9.7l0.2,0.2l0.1,0.1l0.8,0.8L90,42.9l10.6,10.6c-0.1,0.3-0.2,0.5-0.3,0.8
			c-0.5,1.4-0.8,2.8-0.9,4.3c-0.1,0.6-0.1,1.2-0.1,1.8c0,2.1,0.3,4.1,1,6c0.1,0.3,0.2,0.6,0.3,0.9c0.1,0.3,0.2,0.6,0.4,0.8
			c0.1,0.3,0.3,0.5,0.4,0.8c0.1,0.3,0.3,0.5,0.4,0.8c0.4,0.7,0.8,1.3,1.2,1.9c0.3,0.4,0.6,0.7,0.8,1.1c0.4,0.5,0.8,0.9,1.2,1.3
			c0.3,0.3,0.7,0.6,1,0.9c0.1,0.1,0.2,0.2,0.4,0.3c0.2,0.1,0.4,0.3,0.6,0.4c0.1,0.1,0.3,0.2,0.4,0.3c0.5,0.4,1.1,0.7,1.7,1
			c0.5,0.3,1,0.5,1.5,0.7c0.1,0.1,0.2,0.1,0.4,0.2c2.2,0.9,4.6,1.4,7.1,1.4c5.5,0,10.4-2.4,13.9-6.1c0.6-0.7,1.2-1.4,1.7-2.1
			c0.1-0.1,0.2-0.3,0.2-0.4c0.2-0.4,0.5-0.8,0.7-1.2c1-1.9,1.7-3.9,2-6.1c0.1-0.9,0.2-1.9,0.2-2.8c0-4.6-1.7-8.8-4.4-12.1
			c-0.1-0.2-0.3-0.3-0.4-0.5c-0.1-0.1-0.2-0.3-0.3-0.4c-0.2-0.2-0.4-0.4-0.6-0.6c-0.1-0.1-0.2-0.2-0.3-0.3c-0.2-0.2-0.4-0.4-0.7-0.6
			c-0.2-0.1-0.3-0.3-0.5-0.4c-0.1-0.1-0.3-0.2-0.4-0.3c-0.1-0.1-0.3-0.2-0.4-0.3c-0.5-0.3-0.9-0.6-1.4-0.9c-0.1-0.1-0.2-0.1-0.4-0.2
			c-0.4-0.2-0.7-0.4-1.1-0.5c-0.1-0.1-0.3-0.1-0.4-0.2c-2.2-0.9-4.7-1.5-7.3-1.5c-0.5,0-1,0-1.5,0.1c-0.3,0-0.6,0.1-0.9,0.1
			c-0.4,0.1-0.8,0.1-1.2,0.2c-0.3,0.1-0.7,0.1-1,0.2c-0.4,0.1-0.8,0.2-1.3,0.4l-10.9-10.9L90,20.5l-0.8-0.8L89,19.5l-0.1-0.1
			c-9-9-20.8-14-33.4-14.4c-0.5,0-0.9,0-1.4,0c-9,0-17.7,2.4-25.2,6.9c-2.1,1.3-4.2,2.7-6.1,4.3c-1.2,1-2.3,2-3.4,3.1
			c-2.1,2.1-4,4.4-5.7,6.8c-0.5,0.8-1,1.5-1.5,2.3c-0.2,0.3-0.3,0.5-0.5,0.8c-0.5,0.9-1,1.8-1.5,2.7c-0.5,1.1-1,2.2-1.5,3.3
			c-0.2,0.4-0.3,0.7-0.4,1.1c-0.3,0.7-0.6,1.5-0.8,2.3C5.8,43.6,5,48.8,5,54.1c0,6.6,1.3,12.9,3.7,18.8c2.1,5.2,5.2,9.9,9,14.2
			c0.5,0.6,1.1,1.2,1.7,1.8l0.3,0.3L23.4,85.4z M109.7,57.3c0.1-0.4,0.3-0.8,0.5-1.2c0.1-0.2,0.3-0.5,0.4-0.7
			c0.3-0.5,0.7-0.9,1.1-1.3c0.2-0.2,0.4-0.4,0.6-0.6c0.1-0.1,0.2-0.2,0.3-0.3c0.2-0.2,0.5-0.3,0.7-0.5c0.2-0.1,0.5-0.3,0.7-0.4
			c0.1-0.1,0.3-0.1,0.4-0.2c0.3-0.1,0.5-0.2,0.8-0.3c0.8-0.3,1.7-0.4,2.6-0.4c2.2,0,4.2,0.8,5.8,2.2c0.4,0.3,0.7,0.7,1,1
			c0.4,0.4,0.7,0.9,1,1.4c0.1,0.2,0.3,0.5,0.4,0.8c0.1,0.3,0.2,0.5,0.3,0.8c0.3,0.8,0.4,1.7,0.4,2.6c0,0.6-0.1,1.2-0.2,1.8
			c-0.1,0.3-0.1,0.6-0.2,0.8c-0.2,0.6-0.4,1.1-0.7,1.6c-0.1,0.2-0.2,0.4-0.4,0.6c-0.1,0.1-0.1,0.2-0.2,0.3c-0.3,0.4-0.6,0.8-1,1.2
			c-0.1,0.1-0.2,0.2-0.3,0.3c-0.4,0.4-0.9,0.7-1.4,1c-0.9,0.5-1.9,0.9-3,1.1c-0.2,0-0.4,0.1-0.6,0.1c-0.3,0-0.6,0-0.9,0
			c-2.2,0-4.2-0.8-5.8-2.2c-0.4-0.3-0.7-0.7-1-1c-0.1-0.1-0.2-0.2-0.3-0.3c-0.1-0.2-0.3-0.4-0.4-0.6c-0.1-0.1-0.1-0.2-0.2-0.3
			c-0.8-1.3-1.2-2.8-1.2-4.4C109.2,59.3,109.4,58.3,109.7,57.3z"/>
	</g>
</g>
</svg>
